<?xml version="1.0" encoding="UTF-8" standalone="no"?>
<!-- Created with Inkscape (http://www.inkscape.org/) -->

<svg
   width="200.75563mm"
   height="135.70648mm"
   viewBox="0 0 200.75563 135.70649"
   version="1.1"
   id="svg1"
   xmlSpace="preserve"
   xmlns="http://www.w3.org/2000/svg"
   xmlnsSvg="http://www.w3.org/2000/svg"><defs
     id="defs1" /><g
     id="layer1"
     transform="translate(-0.24490672,-64.863577)"><g
       id="g4374"
       transform="matrix(0.0937961,0.18349727,-0.18349727,0.0937961,149.1608,18.243235)"><path
         id="path4346"
         style="fill:none;stroke:#000000;stroke-width:70.5066;stroke-linecap:round;stroke-linejoin:bevel;stroke-dasharray:none"
         d="m 662.66,405.27 c 0,148.95985 -120.75015,269.71 -269.71,269.71 -148.95985,0 -269.71,-120.75015 -269.71,-269.71 0,-148.95985 120.75015,-269.71 269.71,-269.71 148.95985,0 269.71,120.75015 269.71,269.71 z"
         transform="translate(-8.1011,62.735)" /><path
         id="rect4350"
         style="fill:#000000;stroke:#000000;stroke-width:3.6153;stroke-linecap:round;stroke-linejoin:bevel"
         d="m 352.84,203.67 h 57.953 V 666.28841 730.23 H 352.84 Z" /><path
         id="rect4358"
         style="fill:#000000;stroke:#000000;stroke-width:4.0258;stroke-linecap:round;stroke-linejoin:bevel"
         d="m 707.02,-306.87 h 57.543 V 350.7 H 707.02 Z"
         transform="rotate(37.05)" /><path
         id="rect4364"
         style="fill:#000000;stroke:#000000;stroke-width:4.0258;stroke-linecap:round;stroke-linejoin:bevel"
         d="m 415.15,-66.127 h 57.543 v 657.57 H 415.15 Z"
         transform="rotate(37.05)" /><path
         id="rect4368"
         style="fill:#000000;stroke:#000000;stroke-width:2.0954;stroke-linecap:round;stroke-linejoin:bevel"
         d="m 767.09,144.24 h 59.473 V 316.6 H 767.09 Z" /><path
         id="rect4370"
         style="fill:#000000;stroke:#000000;stroke-width:2.0417;stroke-linecap:round;stroke-linejoin:bevel"
         d="m 144.23,-826.25 h 59.527 v 163.49 H 144.23 Z"
         transform="rotate(90)" /></g></g></svg>
